{
  "accessors": [
    {
      "bufferView": 2,
      "componentType": 5126,
      "count": 492,
      "max": [
        0.15306964516639709,
        0.15306964516639709,
        0.31286746263504028
      ],
      "min": [
        -0.15306964516639709,
        -0.15306964516639709,
        -0.10811357945203781
      ],
      "type": "VEC3"
    },
    {
      "bufferView": 2,
      "byteOffset": 5904,
      "componentType": 5126,
      "count": 492,
      "max": [
        1,
        1,
        1
      ],
      "min": [
        -1,
        -1,
        -1
      ],
      "type": "VEC3"
    },
    {
      "bufferView": 3,
      "componentType": 5126,
      "count": 492,
      "max": [
        1,
        1,
        0.049060624092817307,
        1
      ],
      "min": [
        -0.70710688829421997,
        -0.70710718631744385,
        -0.049046777188777924,
        -1
      ],
      "type": "VEC4"
    },
    {
      "bufferView": 1,
      "componentType": 5126,
      "count": 492,
      "max": [
        0.94780904054641724,
        0.97546994686126709
      ],
      "min": [
        0.0098518338054418564,
        0.072267927229404449
      ],
      "type": "VEC2"
    },
    {
      "bufferView": 0,
      "componentType": 5125,
      "count": 1134,
      "max": [
        491
      ],
      "min": [
        0
      ],
      "type": "SCALAR"
    },
    {
      "bufferView": 2,
      "byteOffset": 11808,
      "componentType": 5126,
      "count": 144,
      "max": [
        0.07079855352640152,
        0.07079855352640152,
        0.20929606258869171
      ],
      "min": [
        -0.070798546075820923,
        -0.070798546075820923,
        0.036395866423845291
      ],
      "type": "VEC3"
    },
    {
      "bufferView": 2,
      "byteOffset": 13536,
      "componentType": 5126,
      "count": 144,
      "max": [
        0.97961717844009399,
        0.97961717844009399,
        0.20087869465351105
      ],
      "min": [
        -0.97961717844009399,
        -0.97961717844009399,
        0.20087353885173798
      ],
      "type": "VEC3"
    },
    {
      "bufferView": 3,
      "byteOffset": 7872,
      "componentType": 5126,
      "count": 144,
      "max": [
        0.99998182058334351,
        0.99998182058334351,
        0.019377902150154114,
        1
      ],
      "min": [
        -0.70415878295898438,
        -0.70415878295898438,
        -0.019377622753381729,
        -1
      ],
      "type": "VEC4"
    },
    {
      "bufferView": 1,
      "byteOffset": 3936,
      "componentType": 5126,
      "count": 144,
      "max": [
        0.94099795818328857,
        0.5881730318069458
      ],
      "min": [
        0.39588665962219238,
        0.25936216115951538
      ],
      "type": "VEC2"
    },
    {
      "bufferView": 0,
      "byteOffset": 4536,
      "componentType": 5125,
      "count": 384,
      "max": [
        143
      ],
      "min": [
        0
      ],
      "type": "SCALAR"
    }
  ],
  "asset": {
    "extras": {
      "author": "jkvarel (https://sketchfab.com/jkvarel1701)",
      "license": "CC-BY-4.0 (http://creativecommons.org/licenses/by/4.0/)",
      "source": "https://sketchfab.com/3d-models/roadcone-b46db7642f934f589d674f3bc09fd345",
      "title": "Roadcone"
    },
    "generator": "Sketchfab-5.14.0",
    "version": "2.0"
  },
  "bufferViews": [
    {
      "buffer": 0,
      "byteLength": 6072,
      "byteOffset": 0,
      "name": "floatBufferViews",
      "target": 34963
    },
    {
      "buffer": 0,
      "byteLength": 5088,
      "byteOffset": 6072,
      "byteStride": 8,
      "name": "floatBufferViews",
      "target": 34962
    },
    {
      "buffer": 0,
      "byteLength": 15264,
      "byteOffset": 11160,
      "byteStride": 12,
      "name": "floatBufferViews",
      "target": 34962
    },
    {
      "buffer": 0,
      "byteLength": 10176,
      "byteOffset": 26424,
      "byteStride": 16,
      "name": "floatBufferViews",
      "target": 34962
    }
  ],
  "buffers": [
    {
      "byteLength": 36600,
      "uri": "scene.bin"
    }
  ],
  "materials": [
    {
      "doubleSided": true,
      "emissiveFactor": [
        0,
        0,
        0
      ],
      "name": "Roadcone",
      "pbrMetallicRoughness": {
        "baseColorFactor": [
          0.80000000000000004,
          0.249527,
          0.0078673000000000007,
          1
        ],
        "metallicFactor": 0,
        "roughnessFactor": 0.9219366913
      }
    },
    {
      "doubleSided": true,
      "emissiveFactor": [
        0,
        0,
        0
      ],
      "name": "Roadconewhite",
      "pbrMetallicRoughness": {
        "baseColorFactor": [
          0.80000000000000004,
          0.80000000000000004,
          0.80000000000000004,
          1
        ],
        "metallicFactor": 0,
        "roughnessFactor": 0.82111456179999998
      }
    }
  ],
  "meshes": [
    {
      "name": "Roadcone_Roadcone_0",
      "primitives": [
        {
          "attributes": {
            "NORMAL": 1,
            "POSITION": 0,
            "TANGENT": 2,
            "TEXCOORD_0": 3
          },
          "indices": 4,
          "material": 0,
          "mode": 4
        }
      ]
    },
    {
      "name": "Roadcone_Roadconewhite_0",
      "primitives": [
        {
          "attributes": {
            "NORMAL": 6,
            "POSITION": 5,
            "TANGENT": 7,
            "TEXCOORD_0": 8
          },
          "indices": 9,
          "material": 1,
          "mode": 4
        }
      ]
    }
  ],
  "nodes": [
    {
      "children": [
        1
      ],
      "name": "RootNode (gltf orientation matrix)",
      "rotation": [
        -0.70710678118654746,
        -0,
        -0,
        0.70710678118654757
      ]
    },
    {
      "children": [
        2
      ],
      "name": "RootNode (model correction matrix)"
    },
    {
      "children": [
        3
      ],
      "matrix": [
        1,
        0,
        0,
        0,
        0,
        0,
        1,
        0,
        0,
        -1,
        0,
        0,
        0,
        0,
        0,
        1
      ],
      "name": "roadcone.fbx"
    },
    {
      "children": [
        4
      ],
      "name": "RootNode"
    },
    {
      "children": [
        5,
        6
      ],
      "matrix": [
        100,
        0,
        0,
        0,
        0,
        -1.6292067939183141e-05,
        -99.999999999998678,
        0,
        0,
        99.999999999998678,
        -1.6292067939183141e-05,
        0,
        0,
        0,
        -6.4321301351810689e-07,
        1
      ],
      "name": "Roadcone"
    },
    {
      "mesh": 0,
      "name": "Roadcone_Roadcone_0"
    },
    {
      "mesh": 1,
      "name": "Roadcone_Roadconewhite_0"
    }
  ],
  "scene": 0,
  "scenes": [
    {
      "name": "OSG_Scene",
      "nodes": [
        0
      ]
    }
  ]
}

